<svg width="184" height="184" viewBox="0 0 184 184" fill="none" xmlns="http://www.w3.org/2000/svg">
<path d="M161.537 92.0001C164.554 92.0001 167.021 94.4495 166.801 97.4587C165.79 111.317 160.944 124.661 152.755 135.975C143.496 148.768 130.434 158.311 115.433 163.246C100.431 168.18 84.2544 168.252 69.2089 163.453C54.1633 158.654 41.0166 149.228 31.6424 136.519C22.2682 123.81 17.1451 108.466 17.0031 92.6743C16.8611 76.8826 21.7076 61.449 30.8518 48.5733C39.9959 35.6976 52.9711 26.0369 67.9279 20.9682C81.1553 16.4856 95.3356 15.7966 108.874 18.9229C111.814 19.6018 113.426 22.6818 112.535 25.5644C111.644 28.4471 108.587 30.0372 105.639 29.3949C94.3084 26.9262 82.4826 27.5725 71.4349 31.3164C58.657 35.6467 47.5721 43.9 39.7601 54.8999C31.9481 65.8998 27.8077 79.085 27.929 92.5761C28.0502 106.067 32.427 119.176 40.4355 130.034C48.444 140.891 59.6755 148.944 72.5292 153.044C85.3828 157.144 99.2026 157.081 112.019 152.866C124.835 148.651 135.994 140.498 143.904 129.568C150.744 120.119 154.854 109.011 155.841 97.4569C156.098 94.4506 158.52 92.0001 161.537 92.0001Z" fill="white"/>
<path d="M73.7649 24.9366C72.9737 22.0267 74.6892 19.0054 77.649 18.428C93.0528 15.423 109.064 17.322 123.398 23.9343C139.39 31.3113 152.274 44.0838 159.79 60.0111C167.306 75.9385 168.974 94.0037 164.501 111.038C160.028 128.072 149.7 142.987 135.328 153.167C120.957 163.347 103.46 168.142 85.9067 166.71C68.3533 165.279 51.8646 157.712 39.3327 145.338C26.8009 132.964 19.0263 116.572 17.3727 99.0382C15.8905 83.322 19.4108 67.5878 27.3561 54.0534C28.8827 51.4528 32.302 50.8368 34.7846 52.5486C37.2672 54.2604 37.8695 57.6507 36.3753 60.27C29.8686 71.6761 27.0035 84.8518 28.2447 98.0128C29.6574 112.992 36.2994 126.996 47.0055 137.567C57.7117 148.139 71.7983 154.603 86.7944 155.826C101.79 157.049 116.738 152.953 129.016 144.256C141.294 135.559 150.117 122.817 153.938 108.264C157.76 93.7118 156.335 78.2784 149.914 64.6714C143.493 51.0644 132.486 40.1527 118.824 33.8504C106.82 28.3132 93.44 26.6448 80.5212 28.9989C77.5545 29.5395 74.5562 27.8465 73.7649 24.9366Z" fill="#73CFD5"/>
</svg>
