<svg width="184" height="184" viewBox="0 0 184 184" fill="none" xmlns="http://www.w3.org/2000/svg">
<path d="M161.537 92.0001C164.554 92.0001 167.021 94.4495 166.801 97.4587C165.79 111.317 160.944 124.661 152.756 135.975C143.496 148.768 130.435 158.311 115.433 163.246C100.431 168.18 84.2545 168.252 69.2089 163.453C54.1634 158.654 41.0166 149.228 31.6424 136.519C22.2683 123.81 17.1451 108.466 17.0032 92.6743C16.8612 76.8826 21.7077 61.449 30.8518 48.5733C39.996 35.6976 52.9712 26.0369 67.928 20.9682C81.1554 16.4856 95.3357 15.7966 108.874 18.9229C111.814 19.6018 113.426 22.6818 112.535 25.5644C111.644 28.4471 108.587 30.0372 105.639 29.3949C94.3084 26.9262 82.4827 27.5725 71.4349 31.3164C58.6571 35.6467 47.5722 43.9 39.7602 54.8999C31.9482 65.8998 27.8077 79.085 27.929 92.5761C28.0503 106.067 32.4271 119.176 40.4356 130.034C48.4441 140.891 59.6756 148.944 72.5292 153.044C85.3829 157.144 99.2027 157.081 112.019 152.866C124.835 148.651 135.994 140.498 143.904 129.568C150.744 120.119 154.854 109.011 155.841 97.4569C156.098 94.4506 158.52 92.0001 161.537 92.0001Z" fill="white"/>
<path d="M73.765 24.9366C72.9738 22.0267 74.6891 19.0055 77.6488 18.4281C88.4534 16.3205 99.6132 16.6145 110.33 19.3173C122.816 22.4662 134.281 28.7786 143.618 37.6458C152.955 46.513 159.851 57.6361 163.64 69.9428C167.429 82.2496 167.984 95.3249 165.251 107.908C162.518 120.492 156.59 132.159 148.037 141.786C139.485 151.412 128.597 158.673 116.422 162.868C104.248 167.064 91.1985 168.052 78.5312 165.739C67.6583 163.753 57.3819 159.391 48.4248 152.992C45.9711 151.239 45.6635 147.778 47.5905 145.459C49.5174 143.139 52.9479 142.842 55.4231 144.565C62.9208 149.782 71.4665 153.347 80.4934 154.996C91.3153 156.973 102.464 156.128 112.865 152.544C123.265 148.96 132.567 142.757 139.874 134.533C147.18 126.309 152.245 116.341 154.58 105.591C156.914 94.8405 156.44 83.6701 153.203 73.1562C149.966 62.6424 144.075 53.1397 136.098 45.5643C128.121 37.9889 118.327 32.5962 107.66 29.906C98.7623 27.6621 89.5076 27.3616 80.5212 28.999C77.5545 29.5395 74.5562 27.8465 73.765 24.9366Z" fill="#73CFD5"/>
</svg>
