<svg width="184" height="184" viewBox="0 0 184 184" fill="none" xmlns="http://www.w3.org/2000/svg">
<path d="M161.537 92.0001C164.554 92.0001 167.021 94.4495 166.801 97.4587C165.79 111.317 160.944 124.661 152.756 135.975C143.496 148.768 130.435 158.311 115.433 163.246C100.431 168.18 84.2545 168.252 69.2089 163.453C54.1634 158.654 41.0166 149.228 31.6424 136.519C22.2683 123.81 17.1451 108.466 17.0032 92.6743C16.8612 76.8826 21.7077 61.449 30.8518 48.5733C39.996 35.6976 52.9712 26.0369 67.928 20.9682C81.1554 16.4856 95.3357 15.7966 108.874 18.9229C111.814 19.6018 113.426 22.6818 112.535 25.5644C111.644 28.4471 108.587 30.0372 105.639 29.3949C94.3084 26.9262 82.4827 27.5725 71.4349 31.3164C58.6571 35.6467 47.5722 43.9 39.7602 54.8999C31.9482 65.8998 27.8077 79.085 27.929 92.5761C28.0503 106.067 32.4271 119.176 40.4356 130.034C48.4441 140.891 59.6756 148.944 72.5292 153.044C85.3829 157.144 99.2027 157.081 112.019 152.866C124.835 148.651 135.994 140.498 143.904 129.568C150.744 120.119 154.854 109.011 155.841 97.4569C156.098 94.4506 158.52 92.0001 161.537 92.0001Z" fill="white"/>
<path d="M73.765 24.9366C72.9738 22.0267 74.6893 19.0054 77.649 18.4281C92.2199 15.5856 107.353 17.1275 121.109 22.9242C136.547 29.4298 149.36 40.9195 157.505 55.5593C165.649 70.1992 168.654 87.1454 166.041 103.693C163.428 120.241 155.346 135.436 143.087 146.854C130.827 158.271 115.096 165.253 98.4049 166.684C81.7134 168.116 65.0235 163.915 50.999 154.751C36.9745 145.588 26.4239 131.99 21.0313 116.129C16.2262 101.996 15.763 86.7919 19.6332 72.4598C20.4193 69.5485 23.5548 68.0519 26.4012 69.0478C29.2475 70.0437 30.7233 73.1547 29.9734 76.0755C26.8877 88.0935 27.3511 100.792 31.3703 112.614C35.9773 126.164 44.9909 137.781 56.9722 145.609C68.9535 153.438 83.212 157.027 97.4718 155.804C111.732 154.581 125.171 148.617 135.644 138.862C146.118 129.108 153.022 116.127 155.254 101.99C157.487 87.8527 154.92 73.3753 147.962 60.8682C141.004 48.3611 130.057 38.5453 116.868 32.9874C105.362 28.1388 92.728 26.7747 80.5213 28.9989C77.5546 29.5395 74.5562 27.8465 73.765 24.9366Z" fill="#73CFD5"/>
</svg>
